<svg width="448" height="512" viewBox="0 0 448 512" fill="none" xmlns="http://www.w3.org/2000/svg">
<path d="M445.105 338.6L430.335 306.6C425.105 295.3 413.706 288 401.206 288H46.7655C34.2855 288 22.9455 295.3 17.7055 306.6L2.9355 338.6C-1.6275 348.506 -0.830497 360.07 5.0445 369.26C10.9195 378.45 21.0955 384 31.1055 384L31.1065 496C31.1065 504.836 38.2705 512 47.1065 512H79.1065C87.9445 512 95.1065 504.836 95.1065 496V384H351.107V496C351.107 504.836 358.271 512 367.107 512H398.206C407.044 512 414.206 504.836 414.206 496L416.005 384C426.915 384 437.086 378.438 442.956 369.25C448.826 360.062 449.605 348.5 445.105 338.6ZM111.105 128C111.105 98.52 127.306 73.9 151.106 59.13V256H199.106L199.115 48H247.115L247.106 256H295.105L295.115 59.1C319.806 73 335.105 98.52 335.105 128L335.096 256H383.126L383.114 128C383.114 57.31 325.804 0 255.114 0H191.106C121.306 0 63.9855 57.31 63.9855 128L64.0013 256H111.971L111.105 128Z" fill="#7DBCDD"/>
</svg>
