<svg width="560" height="392" viewBox="0 0 560 392" fill="none" xmlns="http://www.w3.org/2000/svg">
<path d="M518 168C494.812 168 476 186.812 476 210V280H84V210C84 186.812 65.1963 168 42 168C18.8037 168 0 186.812 0 210V378C0 385.7 6.2685 392 14 392H70C77.7315 392 83.2125 385.732 83.2125 378L84 364H476V378C476 385.732 482.268 392 490 392H546C553.732 392 560 385.732 560 378V210C560 186.812 541.188 168 518 168ZM112 210V252H448V210C448 176.199 472.089 147.919 504 141.417V112C504 50.1462 453.854 0 392 0H167.213C105.359 0 55.2125 50.1462 55.2125 112L56 141.4C87.9375 147.963 112 176.225 112 210Z" fill="#7DBCDD"/>
</svg>
