<svg width="352" height="512" viewBox="0 0 352 512" fill="none" xmlns="http://www.w3.org/2000/svg">
<path d="M96.1 454.288C96.1 460.585 97.916 466.728 101.384 471.978L118.524 497.668C123.774 505.543 135.694 511.948 145.164 511.948H206.834C216.272 511.948 228.194 505.547 233.444 497.668L250.524 471.988C253.462 467.55 255.872 459.618 255.872 454.288L256 415.088H96L96.1 454.288ZM175.4 0.000835255C73.44 0.313335 0 82.9576 0 175.088C0 219.468 16.44 259.928 43.56 290.888C60.09 309.728 85.9 349.118 95.78 382.338C95.8113 382.588 95.8738 382.854 95.905 383.12H256.105C256.136 382.854 256.199 382.603 256.23 382.338C266.105 349.118 291.92 309.728 308.45 290.888C335.6 260.788 352 220.388 352 175.088C352 78.5976 272.9 -0.296065 175.4 0.000835255ZM176 95.9976C131.87 95.9976 96 131.888 96 175.098C96 184.788 88.8 191.988 80 191.988C71.2 191.988 64 184.788 64 175.988C64 114.228 114.25 64.8876 176 64.8876C184.844 64.8876 192 72.0466 192 80.8876C192 89.7286 184.8 95.9976 176 95.9976Z" fill="#7DBCDD"/>
</svg>
